<svg width="24" height="24" viewBox="0 0 24 24" fill="none" xmlns="http://www.w3.org/2000/svg">
<path d="M15.4901 20.76C15.3001 20.76 15.1101 20.69 14.9601 20.54C14.6701 20.25 14.6701 19.77 14.9601 19.48L19.9701 14.47C20.2601 14.18 20.7401 14.18 21.0301 14.47C21.3201 14.76 21.3201 15.24 21.0301 15.53L16.0201 20.54C15.8701 20.68 15.6801 20.76 15.4901 20.76Z" fill="#202123"/>
<path d="M20.5 15.74H3.5C3.09 15.74 2.75 15.4 2.75 14.99C2.75 14.58 3.09 14.24 3.5 14.24H20.5C20.91 14.24 21.25 14.58 21.25 14.99C21.25 15.4 20.91 15.74 20.5 15.74Z" fill="#202123"/>
<path d="M3.49994 9.76C3.30994 9.76 3.11994 9.69 2.96994 9.54C2.67994 9.25 2.67994 8.77 2.96994 8.48L7.97994 3.47C8.26994 3.18 8.74994 3.18 9.03994 3.47C9.32994 3.76 9.32994 4.24 9.03994 4.53L4.02994 9.54C3.88994 9.68 3.68994 9.76 3.49994 9.76Z" fill="#202123"/>
<path d="M20.5 9.76H3.5C3.09 9.76 2.75 9.42 2.75 9.01C2.75 8.6 3.09 8.26 3.5 8.26H20.5C20.91 8.26 21.25 8.6 21.25 9.01C21.25 9.42 20.91 9.76 20.5 9.76Z" fill="#202123"/>
</svg>
